<?xml version="1.0" encoding="UTF-8" standalone="no"?>
<!DOCTYPE svg PUBLIC "-//W3C//DTD SVG 1.1//EN"
 "http://www.w3.org/Graphics/SVG/1.1/DTD/svg11.dtd">
<!-- Generated by graphviz version 2.43.0 (0)
 -->
<!-- Title: %3 Pages: 1 -->
<svg width="230pt" height="151pt"
 viewBox="0.00 0.00 229.50 151.10" xmlns="http://www.w3.org/2000/svg" xmlns:xlink="http://www.w3.org/1999/xlink">
<g id="graph0" class="graph" transform="scale(1 1) rotate(0) translate(4 147.1)">
<title>%3</title>
<polygon fill="white" stroke="transparent" points="-4,4 -4,-147.1 225.5,-147.1 225.5,4 -4,4"/>
<!-- F1 -->
<g id="node1" class="node">
<title>F1</title>
<polygon fill="lightgray" stroke="black" points="26,-143.1 0,-143.1 0,-125.1 26,-125.1 26,-143.1"/>
<text text-anchor="middle" x="13" y="-131.9" font-family="Times,serif" font-size="9.00">F1</text>
</g>
<!-- jitter_s -->
<g id="node2" class="node">
<title>jitter_s</title>
<polygon fill="lightgray" stroke="black" points="85.5,-143.1 44.5,-143.1 44.5,-125.1 85.5,-125.1 85.5,-143.1"/>
<text text-anchor="middle" x="65" y="-131.9" font-family="Times,serif" font-size="9.00">jitter_s</text>
</g>
<!-- Non&#45;Autistic -->
<g id="node5" class="node">
<title>Non&#45;Autistic</title>
<ellipse fill="lightblue" stroke="black" cx="84" cy="-44.55" rx="44.6" ry="44.6"/>
<text text-anchor="middle" x="84" y="-42.35" font-family="Times,serif" font-size="9.00">Non&#45;Autistic</text>
</g>
<!-- jitter_s&#45;&gt;Non&#45;Autistic -->
<g id="edge3" class="edge">
<title>jitter_s&#45;&gt;Non&#45;Autistic</title>
<path fill="none" stroke="red" stroke-width="0.31" d="M66.75,-125.02C68.17,-118.47 70.31,-108.63 72.6,-98.08"/>
<polygon fill="red" stroke="red" stroke-width="0.31" points="76.03,-98.78 74.73,-88.26 69.19,-97.29 76.03,-98.78"/>
</g>
<!-- shimmer -->
<g id="node3" class="node">
<title>shimmer</title>
<polygon fill="lightgray" stroke="black" points="221.5,-143.1 174.5,-143.1 174.5,-125.1 221.5,-125.1 221.5,-143.1"/>
<text text-anchor="middle" x="198" y="-131.9" font-family="Times,serif" font-size="9.00">shimmer</text>
</g>
<!-- Autistic -->
<g id="node6" class="node">
<title>Autistic</title>
<ellipse fill="lightblue" stroke="black" cx="188" cy="-44.55" rx="31.23" ry="31.23"/>
<text text-anchor="middle" x="188" y="-42.35" font-family="Times,serif" font-size="9.00">Autistic</text>
</g>
<!-- shimmer&#45;&gt;Autistic -->
<g id="edge4" class="edge">
<title>shimmer&#45;&gt;Autistic</title>
<path fill="none" stroke="red" stroke-width="0.28" d="M197.08,-125.02C196.04,-115.94 194.28,-100.52 192.58,-85.66"/>
<polygon fill="red" stroke="red" stroke-width="0.28" points="196.04,-85.09 191.43,-75.55 189.08,-85.89 196.04,-85.09"/>
</g>
<!-- mean_hnr -->
<g id="node4" class="node">
<title>mean_hnr</title>
<polygon fill="lightgray" stroke="black" points="156,-143.1 104,-143.1 104,-125.1 156,-125.1 156,-143.1"/>
<text text-anchor="middle" x="130" y="-131.9" font-family="Times,serif" font-size="9.00">mean_hnr</text>
</g>
<!-- mean_hnr&#45;&gt;Non&#45;Autistic -->
<g id="edge2" class="edge">
<title>mean_hnr&#45;&gt;Non&#45;Autistic</title>
<path fill="none" stroke="red" stroke-width="0.48" d="M125.75,-125.02C121.82,-117.52 115.61,-105.71 109.18,-93.46"/>
<polygon fill="red" stroke="red" stroke-width="0.48" points="112.23,-91.75 104.48,-84.52 106.03,-95 112.23,-91.75"/>
</g>
<!-- mean_hnr&#45;&gt;Autistic -->
<g id="edge1" class="edge">
<title>mean_hnr&#45;&gt;Autistic</title>
<path fill="none" stroke="green" stroke-width="0.39" d="M135.35,-125.02C142.23,-114.63 154.6,-95.97 165.62,-79.33"/>
<polygon fill="green" stroke="green" stroke-width="0.39" points="168.62,-81.14 171.22,-70.87 162.78,-77.27 168.62,-81.14"/>
</g>
</g>
</svg>
